<svg height="56" viewBox="0 0 56 56" width="56" xmlns="http://www.w3.org/2000/svg">
    <path
        fill="currentColor"
        d="m24.332 13.2461c0 1.875 1.5 3.375 3.375 3.375 1.8985 0 3.375-1.5 3.3516-3.375 0-1.8984-1.4531-3.3984-3.3516-3.3984-1.875 0-3.375 1.5-3.375 3.3984zm-5.8125 30.9844c0 1.1484.8204 1.9218 2.0625 1.9218h14.8359c1.2422 0 2.0626-.7734 2.0626-1.9218 0-1.125-.8204-1.8985-2.0626-1.8985h-4.7109v-17.8828c0-1.2656-.8203-2.1093-2.039-2.1093h-7.4297c-1.2188 0-2.0391.75-2.0391 1.8749 0 1.1719.8203 1.9454 2.0391 1.9454h5.1328v16.1718h-5.7891c-1.2421 0-2.0625.7735-2.0625 1.8985z" />
</svg>